<svg viewBox="0 0 512 512" xmlns="http://www.w3.org/2000/svg"><g id="Filled_outline" data-name="Filled outline"><path d="m193.9 110.86 2.77-1.66 19.72-11.83 12.943-8.37-45.333-17-8.312 9.25z" fill="#fec9a3"/><path d="m416 288-22.67 12.67-24.14-32.81-42.29-57.47-32.9-44.72-38 13.43-8-32 34.54-9.87a32 32 0 0 1 34.63 11.89l8.72 11.93 23.87 32.65 5.47 7.49 35.41 50.58z" fill="#c7c7c5"/><path d="m390.64 251.77-21.45 16.09-42.29-57.47 22.86-16.69 5.47 7.49z" fill="#2b4266"/><path d="m288 272v80l-24 24h-72v-24h48l16-16v-64z" fill="#c7c7c5"/><circle cx="232" cy="328" fill="#d6d6d4" r="24"/><path d="m320 248-32 24h-80l-40 16v48l-72-48-72-8 32-8 112-8 40-40a107.351 107.351 0 0 1 96 0z" fill="#f35244"/><path d="m147.36 322.24q10.44-6.51 20.64-13.64v27.4z" fill="#e64c3f"/><path d="m320 248-32 24h-74.04a455.836 455.836 0 0 0 54.27-58.63 107.252 107.252 0 0 1 35.77 10.63z" fill="#e64c3f"/><path d="m56 272 4.723-14.17a16 16 0 0 1 13.587-10.861l69.69-6.969 40-16h24l-40 40z" fill="#34507b"/><path d="m312 216 56-16 48 8-24 8-56 24z" fill="#e64c3f"/><path d="m488 352v-16h-8.453a71.523 71.523 0 0 0 -5.578-20.85l7.313-4.222-8-13.856-7.319 4.225a72.388 72.388 0 0 0 -15.26-15.26l4.225-7.319-13.856-8-4.222 7.313a71.491 71.491 0 0 0 -20.85-5.578v-8.453h-16v8.453a71.491 71.491 0 0 0 -20.85 5.578l-4.222-7.313-13.856 8 4.225 7.319a72.388 72.388 0 0 0 -15.26 15.26l-7.319-4.225-8 13.856 7.313 4.222a71.523 71.523 0 0 0 -5.578 20.85h-8.453v16h8.453a71.523 71.523 0 0 0 5.578 20.85l-7.313 4.222 8 13.856 7.319-4.225a72.388 72.388 0 0 0 15.26 15.26l-4.225 7.319 13.856 8 4.222-7.313a71.523 71.523 0 0 0 20.85 5.578v8.453h16v-8.453a71.523 71.523 0 0 0 20.85-5.578l4.222 7.313 13.856-8-4.225-7.319a72.388 72.388 0 0 0 15.26-15.26l7.319 4.225 8-13.856-7.313-4.222a71.523 71.523 0 0 0 5.578-20.85zm-80 32a40 40 0 1 1 40-40 40 40 0 0 1 -40 40z" fill="#34507b"/><path d="m424 341-23 16.67-57.58-77.52-40.95-55.13-30.47-41.02-40 8-8-32 34.54-9.87a32 32 0 0 1 34.63 11.89l34.01 46.53 40.63 55.58z" fill="#d6d6d4"/><path d="m184 416v-16h-8.453a71.523 71.523 0 0 0 -5.578-20.85l7.313-4.222-8-13.856-7.319 4.225a72.388 72.388 0 0 0 -15.26-15.26l4.225-7.319-13.856-8-4.222 7.313a71.491 71.491 0 0 0 -20.85-5.578v-8.453h-16v8.453a71.491 71.491 0 0 0 -20.85 5.578l-4.222-7.313-13.856 8 4.225 7.319a72.388 72.388 0 0 0 -15.26 15.26l-7.319-4.225-8 13.856 7.313 4.222a71.523 71.523 0 0 0 -5.578 20.85h-8.453v16h8.453a71.523 71.523 0 0 0 5.578 20.85l-7.313 4.222 8 13.856 7.319-4.225a72.388 72.388 0 0 0 15.26 15.26l-4.225 7.319 13.856 8 4.222-7.313a71.523 71.523 0 0 0 20.85 5.578v8.453h16v-8.453a71.523 71.523 0 0 0 20.85-5.578l4.222 7.313 13.856-8-4.225-7.319a72.388 72.388 0 0 0 15.26-15.26l7.319 4.225 8-13.856-7.313-4.222a71.523 71.523 0 0 0 5.578-20.85zm-80 32a40 40 0 1 1 40-40 40 40 0 0 1 -40 40z" fill="#34507b"/><path d="m208 328-120 72 16 24 120-72z" fill="#d6d6d4"/><path d="m222.807 74.271 25.193 18.895 16-24-31.291-12.516a10.2 10.2 0 0 0 -12.9 4.906 10.2 10.2 0 0 0 2.998 12.715z" fill="#34507b"/><path d="m288 61.17-12 13.33-12-5.33-20.45-8.18-10.84-4.34a10.077 10.077 0 0 0 -3.78-.73 10.192 10.192 0 0 0 -6.12 18.35l.64.48 24.55 18.42-8 16-41.13-20.57-22.87-11.43 7.26-21.8a45.883 45.883 0 0 1 72.9-20.74l9.63 8.03z" fill="#348fd9"/><path d="m223.45 74.75 24.55 18.42-8 16-41.13-20.57q12.45-6.255 24.58-13.85z" fill="#3086cd"/><path d="m288 61.17-12 13.33-12-5.33-20.45-8.18q11.34-8.475 22.24-18.33z" fill="#3086cd"/><path d="m88 168 56 24 50.733 25.367a24 24 0 0 1 13.267 21.466v41.167h-40v-24l-60.049-27.295a40 40 0 0 1 -22.9-42.991z" fill="#348fd9"/><path d="m208 280v64l24 16v16h-64v-96z" fill="#34507b"/><path d="m200 120-41.454 17.766a24 24 0 0 0 -14.546 22.06v32.174l-56-24 5.117-30.7a71.916 71.916 0 0 1 13.4-31.326 71.918 71.918 0 0 1 34.794-25.074l19.814-6.521 10 2.625z" fill="#de4132"/><path d="m295.97 149.12a19.991 19.991 0 0 1 -38.17 7.14l-32 12.69a36.566 36.566 0 0 1 -33.73-3.57 36.586 36.586 0 0 1 -12.41-14.06l-11.17-21.32-17.17-32.78a16.38 16.38 0 0 1 28.97-15.28l18.1 31.45 17.61 30.61 56-16v.4a20.248 20.248 0 0 1 4-.4 20 20 0 0 1 19.97 21.12z" fill="#fec9a3"/><path d="m367.81 264.13-23.81 15.87-.58.15-40.95-55.13 1.53-1.02 23.18-15.45z" fill="#34507b"/><path d="m198.39 113.39-29.9 16.61-17.17-32.78a16.38 16.38 0 0 1 28.97-15.28z" fill="#f35244"/><path d="m488 328h-1.613a79.5 79.5 0 0 0 -2.5-9.338l1.393-.8a8 8 0 0 0 2.931-10.924s-7.378-13.6-9.329-15.59a7.879 7.879 0 0 0 -9.6-1.2l-1.406.812a79.992 79.992 0 0 0 -6.828-6.828 25.7 25.7 0 0 0 1.791-4.12 8.026 8.026 0 0 0 -3.906-8.217l-13.86-8a8 8 0 0 0 -10.927 2.929l-.8 1.393a79.5 79.5 0 0 0 -9.338-2.5v-1.617a8 8 0 0 0 -8-8h-12.641l-19.475-27.821 34.638-12.589a8 8 0 0 0 -1.215-15.482l-48-8a8.019 8.019 0 0 0 -3.513.2l-5.917 1.692-36.255-49.6a40.251 40.251 0 0 0 -27.765-16.12c-5.844-5.88-16.365-9.448-22.7-7.948-7.891 1.212-53.352 14.257-53.352 14.257l-12.809-22.263 9.742-5.843 19.988 9.913a8 8 0 0 0 10.769-3.709l7.429-15.5 11.981-17.972 5.836 2.594a8 8 0 0 0 9.2-1.959s13.19-14.889 13.543-15.85a8.022 8.022 0 0 0 -2.371-8.978l-31.837-26.533a53.88 53.88 0 0 0 -85.609 24.353l-4.425 13.273c-17.75 1.885-35.08 4.708-53.25 18.635-20.818 15.957-30.684 38.674-32.771 51.233l-1.451 8.7 15.782 2.632 1.452-8.706a63.876 63.876 0 0 1 40.588-49.325 24.316 24.316 0 0 0 2.572 11.511c.022.045.045.089.068.134l14.659 27.988-3.493 1.5a31.958 31.958 0 0 0 -19.406 29.413v20.037l-44.849-19.221a8 8 0 0 0 -11.043 6.039l-2.952 17.715a48 48 0 0 0 27.486 51.59l46.612 21.187-83.88 5.991.933-2.8a8.031 8.031 0 0 1 6.8-5.437l26.753-2.675-1.591-15.92-26.759 2.674a24.06 24.06 0 0 0 -20.38 16.29l-3.332 10-27.738 6.939a8 8 0 0 0 -5.872 9.5 8.191 8.191 0 0 0 7.178 6.241l69.816 7.757 49.341 32.894-1.454-.839a8 8 0 0 0 -10.929 2.932l-.8 1.39a79.5 79.5 0 0 0 -9.338-2.5v-1.614a8 8 0 0 0 -8-8h-16.002a8 8 0 0 0 -8 8v1.613a79.5 79.5 0 0 0 -9.338 2.5l-.8-1.393a8 8 0 0 0 -10.924-2.931s-15.547 9.17-16.219 10.061a8.017 8.017 0 0 0 -.571 8.872l.812 1.406a79.992 79.992 0 0 0 -6.828 6.828 25.7 25.7 0 0 0 -4.12-1.791 8.026 8.026 0 0 0 -8.217 3.906l-8 13.863a8 8 0 0 0 2.931 10.924l1.393.8a79.5 79.5 0 0 0 -2.5 9.338h-1.619a8 8 0 0 0 -8 8v16a8 8 0 0 0 8 8h1.613a79.5 79.5 0 0 0 2.5 9.338l-1.393.8a8 8 0 0 0 -2.931 10.924s8.737 15 9.216 15.478a8.026 8.026 0 0 0 9.717 1.312l1.406-.812a79.992 79.992 0 0 0 6.828 6.828l-.769 1.331a7.969 7.969 0 0 0 2.884 11.006l13.86 8a8 8 0 0 0 10.927-2.929l.8-1.393a79.5 79.5 0 0 0 9.338 2.5v1.621a8 8 0 0 0 8 8h16a8 8 0 0 0 8-8v-1.613a79.5 79.5 0 0 0 9.338-2.5l.8 1.393a8 8 0 0 0 10.924 2.931s15.547-9.17 16.219-10.061a8.017 8.017 0 0 0 .571-8.872l-.812-1.406a79.992 79.992 0 0 0 6.828-6.828l1.331.769a7.969 7.969 0 0 0 11.006-2.884l8-13.863a8 8 0 0 0 -2.931-10.924l-1.393-.8a79.5 79.5 0 0 0 2.5-9.338h1.623a8 8 0 0 0 8-8v-16.004a8 8 0 0 0 -8-8h-1.616c-.341-1.674-.746-3.335-1.194-4.984l5.026-3.016h77.784a8 8 0 0 0 5.657-2.343l24-24a8 8 0 0 0 2.343-5.657v-76l22.072-16.558 22.281 30a7.994 7.994 0 0 0 -4.562 3.633l-8 13.863a8 8 0 0 0 2.931 10.924l1.393.8a79.5 79.5 0 0 0 -2.5 9.338h-1.615a8 8 0 0 0 -8 8v16a8 8 0 0 0 8 8h1.613a79.5 79.5 0 0 0 2.5 9.338l-1.393.8a8 8 0 0 0 -2.931 10.924s8.737 15 9.216 15.478a8.026 8.026 0 0 0 9.717 1.312l1.406-.812a79.992 79.992 0 0 0 6.828 6.828l-.769 1.331a7.969 7.969 0 0 0 2.884 11.006l13.86 8a8 8 0 0 0 10.927-2.929l.8-1.393a79.5 79.5 0 0 0 9.338 2.5v1.617a8 8 0 0 0 8 8h16a8 8 0 0 0 8-8v-1.613a79.5 79.5 0 0 0 9.338-2.5l.8 1.393a8 8 0 0 0 10.924 2.931s12.942-6.878 16.227-10.061c2.408-2.333 2.142-6.155.571-8.872l-.812-1.406a79.992 79.992 0 0 0 6.828-6.828l1.331.769a7.969 7.969 0 0 0 11.006-2.884l8-13.863a8 8 0 0 0 -2.931-10.924l-1.393-.8a79.5 79.5 0 0 0 2.5-9.338h1.615a8 8 0 0 0 8-8v-16.004a8 8 0 0 0 -8-8zm-111.448 10.172 18.026 24.268a8 8 0 0 0 11.116 1.707l23-16.669a8 8 0 0 0 1.765-11.2l-17.459-23.885a32.084 32.084 0 1 1 -36.447 25.779zm36.25 1.064-10.1 7.316-47.723-64.252 10.894-7.261zm-43.933-104.617 10.777 15.4-7.907 5.933-.1-.138-12.455-17.039zm-12.447 27.488-11 7.329-31.515-42.428 11.33-7.553zm26.241 6.007-.145-.251 6.309-4.733 1.938 2.767c-2.15.474-4.287 1.017-6.394 1.668q-.856.266-1.708.549zm-14.2-59.926 15.447 2.574-34.417 14.755-7.2-9.85zm-57.753-54.347 27.864 38.121-8.872 6.479-28.285-38.695c2.415-4.246 2.581-11.473 2.573-12.107a23.926 23.926 0 0 1 6.721 6.202zm-92.51-2.149 53.536-15.3c.618.021 3.46-.4 4.266-.4a11.995 11.995 0 0 1 11.981 12.682 12.151 12.151 0 0 1 -11.883 11.326 11.978 11.978 0 0 1 -11.023-7.055 8 8 0 0 0 -10.229-4.121l-32 12.686a28.532 28.532 0 0 1 -36.033-13.765l-.068-.133-7.547-14.412 16.186-8.988 13.678 23.774a8 8 0 0 0 9.136 3.706zm10.045-88.792 23.63 10.032-5.841 8.759-20.247-14.391a2.533 2.533 0 0 1 -.759-3.27 2.533 2.533 0 0 1 3.217-1.13zm-37.391-5a37.881 37.881 0 0 1 60.187-17.12l25.453 21.211-2.554 2.838-6.691-2.974c-.092-.041-.185-.08-.278-.117l-31.291-12.516a18.194 18.194 0 0 0 -17.673 31.449l19.851 14.889-1.436 2.873-50.639-25.32zm-17.825 27.18 14.371 25.261-15.629 8.683-13.65-25.757a8.5 8.5 0 0 1 3.629-11.546 8.5 8.5 0 0 1 11.279 3.359zm-80.09 101.95 1.277-7.662 46.417 19.893 50.522 25.26a15.914 15.914 0 0 1 8.845 14.312v33.167h-24v-16a8 8 0 0 0 -4.689-7.283l-60.049-27.3a32.044 32.044 0 0 1 -18.323-34.387zm139.061 156.97a16 16 0 1 1 16-16 16.019 16.019 0 0 1 -16 16zm16-43.695a31.885 31.885 0 0 0 -32 0v-20.305h32zm-141.575 112.91-7.114-10.672 60.689-36.413v9.87a7.96 7.96 0 0 0 1.267 4.31zm-9.541-133.166-16.155-1.795 79.271-5.662v48.46l-59.562-39.708a8 8 0 0 0 -3.554-1.295zm63.116 60.232v7.189l-2.23 1.338c-.246-.223-.479-.456-.728-.676l.814-1.41a8 8 0 0 0 .8-6.072 7.9 7.9 0 0 0 -.7-1.728zm7.6 60.6a8 8 0 0 0 7.95 7.119 8 8 0 0 0 -7.952 7.123 63.451 63.451 0 0 1 -4.956 18.518 8 8 0 0 0 3.291 10.115 8 8 0 0 0 -10.412 2.2 64.077 64.077 0 0 1 -13.568 13.568 8 8 0 0 0 -2.2 10.412 8 8 0 0 0 -10.116-3.291 63.451 63.451 0 0 1 -18.518 4.956 8 8 0 0 0 -7.119 7.949 8 8 0 0 0 -7.123-7.952 63.451 63.451 0 0 1 -18.518-4.956 8 8 0 0 0 -10.116 3.291 8 8 0 0 0 -2.2-10.412 64.077 64.077 0 0 1 -13.568-13.568 8 8 0 0 0 -10.412-2.2 8 8 0 0 0 3.291-10.115 63.451 63.451 0 0 1 -4.954-18.515 8 8 0 0 0 -7.95-7.123 8 8 0 0 0 7.952-7.123 63.451 63.451 0 0 1 4.956-18.518 8 8 0 0 0 -3.291-10.115 8 8 0 0 0 10.412-2.2 64.077 64.077 0 0 1 13.568-13.568 8 8 0 0 0 2.2-10.412 8 8 0 0 0 10.116 3.291 63.451 63.451 0 0 1 18.514-4.955 8 8 0 0 0 7.123-7.95 8 8 0 0 0 7.123 7.952 63.451 63.451 0 0 1 18.518 4.956 8 8 0 0 0 10.116-3.291 8 8 0 0 0 2.189 10.408c.452.333.888.685 1.33 1.03l-59.392 35.635a8 8 0 0 0 -2.54 11.3l16 24a8 8 0 0 0 10.772 2.421l27.211-16.326a31.976 31.976 0 1 1 -27.7-38.33l1.8-15.9a48 48 0 1 0 42.573 47.695c0-1.129-.054-2.26-.134-3.391l14.906-8.943c.339 1.728.633 3.465.828 5.216zm8.4-32.881v-80h24v56a8 8 0 0 0 3.562 6.656l20.438 13.625v3.719zm104-19.313-19.313 19.313h-20.687v-8c11.807-2.76 23.929-16.625 23.929-23.707 0-6.668.071-56.293.071-56.293h16zm5.333-84.687h-69.333v-25.167a31.826 31.826 0 0 0 -17.688-28.622l-46.312-23.155v-27.226a15.981 15.981 0 0 1 9.7-14.709l4.636-1.989 6.2 11.842a44.533 44.533 0 0 0 56.2 21.409l25.922-10.276a28.017 28.017 0 0 0 21.342 9.893h.237a27.848 27.848 0 0 0 14.268-4.066l25.285 34.592-11.434 7.621-25.936-34.917a8 8 0 0 0 -7.991-3.074l-48.029 10.244 1.833 7.5a8 8 0 0 0 9.34 5.946l35.031-7.006 10.515 14.16a115.554 115.554 0 0 0 -61.843 4.36l5.373 15.071a99.342 99.342 0 0 1 72.645 2.344l13.237 17.825zm186.267 87.123a63.451 63.451 0 0 1 -4.956 18.518 8 8 0 0 0 3.291 10.115 8 8 0 0 0 -10.412 2.2 64.077 64.077 0 0 1 -13.568 13.568 8 8 0 0 0 -2.2 10.412 8 8 0 0 0 -10.116-3.291 63.451 63.451 0 0 1 -18.518 4.956 8 8 0 0 0 -7.121 7.949 8 8 0 0 0 -7.123-7.952 63.451 63.451 0 0 1 -18.518-4.956 8 8 0 0 0 -10.116 3.291 8 8 0 0 0 -2.2-10.412 64.077 64.077 0 0 1 -13.568-13.568 8 8 0 0 0 -10.412-2.2 8 8 0 0 0 3.291-10.115 63.451 63.451 0 0 1 -4.956-18.518 8 8 0 0 0 -7.948-7.12 8 8 0 0 0 7.952-7.123 63.451 63.451 0 0 1 4.956-18.518 8 8 0 0 0 -3.291-10.115 8 8 0 0 0 8.158-.129l10.788 14.523a48.144 48.144 0 1 0 36.348-26.166l-10.352-14.162a63.194 63.194 0 0 1 9.861-1.908 8 8 0 0 0 7.13-7.952 8 8 0 0 0 7.123 7.952 63.451 63.451 0 0 1 18.518 4.956 8 8 0 0 0 10.116-3.291 8 8 0 0 0 2.2 10.412 64.077 64.077 0 0 1 13.568 13.568 8 8 0 0 0 10.412 2.2 8 8 0 0 0 -3.291 10.115 63.451 63.451 0 0 1 4.956 18.518 8 8 0 0 0 7.948 7.12 8 8 0 0 0 -7.95 7.123z"/></g></svg>